<svg xmlns="http://www.w3.org/2000/svg" viewBox="0 0 58 61" fill-rule="evenodd" clip-rule="evenodd" stroke-linejoin="round" stroke-miterlimit="2"><title>The home of Code and Create</title><path d="M.777 22.702C4.218 8.895 16.268-.312 30.448.008c12.414.28 23.101 8.597 26.477 20.615.112.396.144.816.239 1.377-2.573 0-5.032.081-7.477-.066-.494-.03-1.111-.844-1.376-1.43-3.127-6.912-8.44-10.969-15.93-11.921C20.695 7.098 10.213 15.07 8.28 26.727 6.416 37.97 13.195 48.822 23.965 51.833c10.074 2.818 20.499-2.224 24.791-12.103.553-1.275 1.204-1.64 2.492-1.581 2.075.096 4.158.027 6.394.027-.653 3.298-1.921 6.168-3.599 8.829-6.32 10.023-15.513 14.746-27.255 13.774-11.661-.967-19.701-7.427-24.41-17.97 0 0-4.026-10.378-1.601-20.107" fill="#e43f44"></path><path d="M29.423 45.7v4.99c-4.845.521-13.398-2.41-17.753-10.489-4.094-7.596-2.848-17.448 2.999-23.46 6.477-6.661 16.055-8.392 24.045-4.344 6.831 3.462 12.082 11.971 11.061 18.015h-5.037c-.303-5.463-2.664-9.82-7.383-12.735-3.213-1.986-6.729-2.569-10.457-1.951-7.132 1.182-12.403 7.663-12.391 15.087.01 6.64 5.265 14.361 14.916 14.887" fill="#5e5f61"></path></svg>